<svg width="1024" height="1024" viewBox="0 0 1024 1024" fill="none" xmlns="http://www.w3.org/2000/svg">
<rect width="1024" height="1024" fill="white"/>
<path d="M929 469.889V431L948.444 419.333M999 431C999 469.66 967.66 501 929 501C890.34 501 859 469.66 859 431C859 392.34 890.34 361 929 361C967.66 361 999 392.34 999 431Z" stroke="#CDCDCD" stroke-opacity="0.4" stroke-width="20" stroke-linecap="round" stroke-linejoin="round"/>
<path d="M77 667.444V703L94.7778 692.333M141 703C141 738.346 112.346 767 77 767C41.6538 767 13 738.346 13 703C13 667.654 41.6538 639 77 639C112.346 639 141 667.654 141 703Z" stroke="#CDCDCD" stroke-opacity="0.4" stroke-width="20" stroke-linecap="round" stroke-linejoin="round"/>
<path d="M526 707.778V770L494.889 751.333M638 770C638 831.856 587.856 882 526 882C464.144 882 414 831.856 414 770C414 708.144 464.144 658 526 658C587.856 658 638 708.144 638 770Z" stroke="#CDCDCD" stroke-opacity="0.4" stroke-width="20" stroke-linecap="round" stroke-linejoin="round"/>
<path d="M394 248.889V170L354.556 146.333M536 170C536 248.425 472.425 312 394 312C315.576 312 252 248.425 252 170C252 91.5756 315.576 28 394 28C472.425 28 536 91.5756 536 170Z" stroke="#CDCDCD" stroke-opacity="0.4" stroke-width="20" stroke-linecap="round" stroke-linejoin="round"/>
<path d="M847 916.333V833H897M997 833C997 915.843 929.843 983 847 983C764.157 983 697 915.843 697 833C697 750.157 764.157 683 847 683C929.843 683 997 750.157 997 833Z" stroke="#CDCDCD" stroke-opacity="0.4" stroke-width="20" stroke-linecap="round" stroke-linejoin="round"/>
<path d="M137 268.111V332L156.167 363.944M252 332C252 395.513 200.513 447 137 447C73.4873 447 22 395.513 22 332C22 268.487 73.4873 217 137 217C200.513 217 252 268.487 252 332Z" stroke="#CDCDCD" stroke-opacity="0.4" stroke-width="20" stroke-linecap="round" stroke-linejoin="round"/>
<path d="M152 147.778V120L160.333 106.111M202 120C202 147.614 179.614 170 152 170C124.386 170 102 147.614 102 120C102 92.3858 124.386 70 152 70C179.614 70 202 92.3858 202 120Z" stroke="#CDCDCD" stroke-opacity="0.4" stroke-width="20" stroke-linecap="round" stroke-linejoin="round"/>
<path d="M93.5 954V916.5L104.75 935.25M161 916.5C161 953.78 130.78 984 93.5 984C56.2208 984 26 953.78 26 916.5C26 879.221 56.2208 849 93.5 849C130.78 849 161 879.221 161 916.5Z" stroke="#CDCDCD" stroke-opacity="0.4" stroke-width="20" stroke-linecap="round" stroke-linejoin="round"/>
<path d="M204 822.111V791L194.667 775.444M260 791C260 821.928 234.928 847 204 847C173.072 847 148 821.928 148 791C148 760.072 173.072 735 204 735C234.928 735 260 760.072 260 791Z" stroke="#CDCDCD" stroke-opacity="0.4" stroke-width="20" stroke-linecap="round" stroke-linejoin="round"/>
<path d="M282 896.111V935L270.333 915.556M352 935C352 973.66 320.66 1005 282 1005C243.34 1005 212 973.66 212 935C212 896.34 243.34 865 282 865C320.66 865 352 896.34 352 935Z" stroke="#CDCDCD" stroke-opacity="0.4" stroke-width="20" stroke-linecap="round" stroke-linejoin="round"/>
<path d="M759 241.444V297L786.778 313.667M859 297C859 352.229 814.229 397 759 397C703.772 397 659 352.229 659 297C659 241.772 703.772 197 759 197C814.229 197 859 241.772 859 297Z" stroke="#CDCDCD" stroke-opacity="0.4" stroke-width="20" stroke-linecap="round" stroke-linejoin="round"/>
<path d="M939 269.333V241L953.167 249.5M990 241C990 269.167 967.167 292 939 292C910.833 292 888 269.167 888 241C888 212.833 910.833 190 939 190C967.167 190 990 212.833 990 241Z" stroke="#CDCDCD" stroke-opacity="0.4" stroke-width="20" stroke-linecap="round" stroke-linejoin="round"/>
<path d="M894.556 107.412L823.444 107.419M779 45.6471L796.778 28M939 45.6471L921.222 28M930.111 107.412C930.111 146.397 898.274 178 859 178C819.726 178 787.889 146.397 787.889 107.412C787.889 68.4269 819.726 36.8235 859 36.8235C898.274 36.8235 930.111 68.4269 930.111 107.412Z" stroke="#CDCDCD" stroke-opacity="0.4" stroke-width="20" stroke-linecap="round" stroke-linejoin="round"/>
<path d="M166.518 615.831C135.756 615.831 116.493 595.25 116.493 561.119C116.493 527.062 135.902 506.48 166.518 506.48C191.933 506.48 211.269 522.594 212.953 546.251H191.42C189.369 533.287 179.408 524.791 166.518 524.791C149.818 524.791 139.052 538.78 139.052 561.046C139.052 583.604 149.672 597.521 166.591 597.521C179.701 597.521 189.149 589.83 191.493 577.306H213.026C210.536 600.89 192.445 615.831 166.518 615.831ZM265.427 615.685C241.696 615.685 226.535 600.45 226.535 574.669C226.535 549.254 241.916 533.8 265.427 533.8C288.938 533.8 304.318 549.181 304.318 574.669C304.318 600.523 289.157 615.685 265.427 615.685ZM265.427 599.352C275.9 599.352 282.565 590.489 282.565 574.742C282.565 559.142 275.827 550.133 265.427 550.133C255.026 550.133 248.215 559.142 248.215 574.742C248.215 590.489 254.88 599.352 265.427 599.352ZM392.388 535.484V614H371.733V599.864H371.294C367.412 609.752 359.648 615.465 347.783 615.465C330.791 615.465 319.512 604.405 319.512 586.095V535.484H340.898V581.627C340.898 592.101 346.099 597.667 355.547 597.667C365.068 597.667 371.001 590.855 371.001 580.455V535.484H392.388ZM410.804 614V535.484H431.458V549.474H431.897C436.072 539.732 444.349 534.02 456.434 534.02C473.865 534.02 483.68 545.006 483.68 563.39V614H462.293V567.857C462.293 557.604 457.459 551.744 447.864 551.744C438.27 551.744 432.19 558.775 432.19 568.956V614H410.804ZM507.442 517.394H528.829V535.484H543.331V551.598H528.829V589.171C528.829 595.177 531.759 598.033 538.058 598.033C539.962 598.033 541.939 597.887 543.258 597.667V613.414C541.061 613.927 537.398 614.293 533.077 614.293C514.62 614.293 507.442 608.141 507.442 592.833V551.598H496.383V535.484H507.442V517.394ZM587.528 615.245C567.899 615.245 555.521 599.718 555.521 574.596C555.521 549.693 567.973 534.239 587.675 534.239C599.027 534.239 607.816 540.245 611.625 548.961H612.064V508.312H633.451V614H612.357V600.523H611.991C608.183 609.166 599.101 615.245 587.528 615.245ZM594.779 551.378C584.013 551.378 577.421 560.387 577.421 574.742C577.421 589.171 584.013 598.033 594.779 598.033C605.399 598.033 612.211 589.098 612.211 574.742C612.211 560.46 605.399 551.378 594.779 551.378ZM688.269 615.685C664.538 615.685 649.377 600.45 649.377 574.669C649.377 549.254 664.758 533.8 688.269 533.8C711.779 533.8 727.16 549.181 727.16 574.669C727.16 600.523 711.999 615.685 688.269 615.685ZM688.269 599.352C698.742 599.352 705.407 590.489 705.407 574.742C705.407 559.142 698.669 550.133 688.269 550.133C677.868 550.133 671.057 559.142 671.057 574.742C671.057 590.489 677.722 599.352 688.269 599.352ZM852.144 535.484L831.343 614H808.564L794.355 558.482H793.916L779.78 614H757.295L736.421 535.484H757.954L769.819 593.712H770.259L784.175 535.484H804.683L818.672 593.712H819.111L831.05 535.484H852.144ZM864.993 614V535.484H885.647V549.474H886.087C890.262 539.732 898.538 534.02 910.623 534.02C928.055 534.02 937.869 545.006 937.869 563.39V614H916.482V567.857C916.482 557.604 911.648 551.744 902.054 551.744C892.459 551.744 886.38 558.775 886.38 568.956V614H864.993Z" fill="black"/>
<path d="M404.609 453.977C388.203 453.977 377.93 443 377.93 424.797C377.93 406.633 388.281 395.656 404.609 395.656C418.164 395.656 428.477 404.25 429.375 416.867H417.891C416.797 409.953 411.484 405.422 404.609 405.422C395.703 405.422 389.961 412.883 389.961 424.758C389.961 436.789 395.625 444.211 404.648 444.211C411.641 444.211 416.68 440.109 417.93 433.43H429.414C428.086 446.008 418.438 453.977 404.609 453.977ZM438.416 453V396.633H449.627V418.586H449.861C452.088 413.312 456.658 410.344 463.025 410.344C472.322 410.344 477.634 416.359 477.634 426.047V453H466.228V428.469C466.228 423.078 463.572 419.797 458.377 419.797C452.986 419.797 449.822 423.586 449.822 429.094V453H438.416ZM487.339 453V411.125H498.355V418.664H498.589C500.073 413.352 503.628 410.461 508.55 410.461C509.878 410.461 511.011 410.656 511.792 410.891V420.93C510.855 420.539 509.292 420.266 507.652 420.266C502.027 420.266 498.745 423.703 498.745 429.602V453H487.339ZM536.692 453.898C524.036 453.898 515.95 445.773 515.95 432.023C515.95 418.469 524.153 410.227 536.692 410.227C549.231 410.227 557.434 418.43 557.434 432.023C557.434 445.812 549.348 453.898 536.692 453.898ZM536.692 445.188C542.278 445.188 545.833 440.461 545.833 432.062C545.833 423.742 542.239 418.938 536.692 418.938C531.145 418.938 527.512 423.742 527.512 432.062C527.512 440.461 531.067 445.188 536.692 445.188ZM565.733 453V411.125H576.748V418.586H576.983C579.209 413.391 583.623 410.344 590.069 410.344C599.366 410.344 604.6 416.203 604.6 426.008V453H593.194V428.391C593.194 422.922 590.616 419.797 585.498 419.797C580.381 419.797 577.139 423.547 577.139 428.977V453H565.733ZM633.445 453.898C620.789 453.898 612.703 445.773 612.703 432.023C612.703 418.469 620.906 410.227 633.445 410.227C645.984 410.227 654.188 418.43 654.188 432.023C654.188 445.812 646.102 453.898 633.445 453.898ZM633.445 445.188C639.031 445.188 642.586 440.461 642.586 432.062C642.586 423.742 638.992 418.938 633.445 418.938C627.898 418.938 624.266 423.742 624.266 432.062C624.266 440.461 627.82 445.188 633.445 445.188Z" fill="#949494"/>
</svg>
